ply
format ascii 1.0
comment Created by Blender 3.1.0 - www.blender.org
element vertex 202
property float x
property float y
property float z
property uchar red
property uchar green
property uchar blue
property uchar alpha
element face 464
property list uchar uint vertex_indices
end_header
0.045781 0.004044 0.990000 255 209 0 255
-0.000034 0.003547 0.990000 255 209 0 255
0.046034 0.003547 -0.000000 255 209 0 255
0.000219 0.004044 0.000000 255 209 0 255
1.545783 0.004043 0.990000 255 209 0 255
1.499964 0.003546 0.990000 255 209 0 255
1.546036 0.003546 0.000000 255 209 0 255
1.500217 0.004043 0.000000 255 209 0 255
0.015680 0.008744 0.000000 255 209 0 255
0.030147 0.008785 -0.000000 255 209 0 255
0.015511 0.008546 0.990000 255 209 0 255
0.030233 0.008809 0.990000 255 209 0 255
1.530492 0.008542 0.000000 255 209 0 255
1.515764 0.008805 -0.000000 255 209 0 255
1.530324 0.008740 0.990000 255 209 0 255
1.515851 0.008781 0.990000 255 209 0 255
0.015680 0.071256 0.990000 255 209 0 255
0.015511 0.071454 0.000000 255 209 0 255
0.030233 0.071191 0.000000 255 209 0 255
0.029350 0.060000 0.089167 255 209 0 255
0.029350 0.020000 0.080000 255 209 0 255
0.029350 0.020000 0.090000 255 209 0 255
0.029350 0.020000 0.975000 255 209 0 255
1.516650 0.020000 0.090000 255 209 0 255
1.516650 0.020000 0.080000 255 209 0 255
1.515851 0.071219 -0.000000 255 209 0 255
1.530324 0.071260 0.000000 255 209 0 255
0.029350 0.020000 0.985000 255 209 0 255
0.030147 0.071215 0.990000 255 209 0 255
1.515764 0.071195 0.990000 255 209 0 255
1.516650 0.060000 0.985000 255 209 0 255
1.516650 0.020000 0.985000 255 209 0 255
1.516650 0.020000 0.975000 255 209 0 255
1.530492 0.071458 0.990000 255 209 0 255
1.516650 0.060000 0.080000 255 209 0 255
0.261850 0.026500 0.090000 255 209 0 255
0.127311 0.033729 0.090000 255 209 0 255
0.354850 0.026500 0.090000 255 209 0 255
0.447850 0.026500 0.090000 255 209 0 255
0.540850 0.026500 0.090000 255 209 0 255
0.633850 0.026500 0.090000 255 209 0 255
0.726850 0.026500 0.090000 255 209 0 255
0.819850 0.026500 0.090000 255 209 0 255
1.005850 0.026500 0.090000 255 209 0 255
1.145130 0.032322 0.090000 255 209 0 255
1.331130 0.032322 0.090000 255 209 0 255
1.426972 0.032094 0.090000 255 209 0 255
0.168850 0.026500 0.975000 255 209 0 255
0.261850 0.026500 0.975000 255 209 0 255
0.354850 0.026500 0.975000 255 209 0 255
0.447850 0.026500 0.975000 255 209 0 255
0.540850 0.026500 0.975000 255 209 0 255
0.633850 0.026500 0.975000 255 209 0 255
0.726850 0.026500 0.975000 255 209 0 255
0.819850 0.026500 0.975000 255 209 0 255
1.005850 0.026500 0.975000 255 209 0 255
1.098850 0.026500 0.975000 255 209 0 255
1.191850 0.026500 0.975000 255 209 0 255
1.284850 0.026500 0.975000 255 209 0 255
1.377850 0.026500 0.975000 255 209 0 255
0.029350 0.060000 0.985000 255 209 0 255
0.029350 0.060000 0.975000 255 209 0 255
0.117389 0.046271 0.090000 255 209 0 255
0.116540 0.035395 0.090000 255 209 0 255
0.215350 0.060000 0.090000 255 209 0 255
0.128160 0.044605 0.090000 255 209 0 255
0.209540 0.035395 0.090000 255 209 0 255
0.210389 0.046271 0.090000 255 209 0 255
0.220311 0.033729 0.090000 255 209 0 255
0.221160 0.044605 0.090000 255 209 0 255
0.302540 0.035395 0.090000 255 209 0 255
0.303389 0.046271 0.090000 255 209 0 255
0.313311 0.033729 0.090000 255 209 0 255
0.401350 0.060000 0.090000 255 209 0 255
0.314160 0.044605 0.090000 255 209 0 255
0.395540 0.035395 0.090000 255 209 0 255
0.396389 0.046271 0.090000 255 209 0 255
0.406311 0.033729 0.090000 255 209 0 255
0.407160 0.044605 0.090000 255 209 0 255
0.488540 0.035395 0.090000 255 209 0 255
0.489389 0.046271 0.090000 255 209 0 255
0.499311 0.033729 0.090000 255 209 0 255
0.587350 0.060000 0.090000 255 209 0 255
0.500160 0.044605 0.090000 255 209 0 255
0.581540 0.035396 0.090000 255 209 0 255
0.581609 0.045102 0.090000 255 209 0 255
0.592311 0.033729 0.090000 255 209 0 255
0.592453 0.045741 0.090000 255 209 0 255
0.674540 0.035396 0.090000 255 209 0 255
0.674609 0.045102 0.090000 255 209 0 255
0.685311 0.033729 0.090000 255 209 0 255
0.773350 0.060000 0.090000 255 209 0 255
0.685453 0.045741 0.090000 255 209 0 255
0.768247 0.034259 0.090000 255 209 0 255
0.767035 0.043884 0.090000 255 209 0 255
0.777545 0.046807 0.090000 255 209 0 255
0.779091 0.034898 0.090000 255 209 0 255
0.860255 0.035978 0.090000 255 209 0 255
0.860609 0.045103 0.090000 255 209 0 255
0.868770 0.032710 0.090000 255 209 0 255
0.873169 0.044486 0.090000 255 209 0 255
0.966761 0.039794 0.090000 255 209 0 255
0.961690 0.032965 0.090000 255 209 0 255
1.052350 0.060000 0.090000 255 209 0 255
1.046326 0.035236 0.090000 255 209 0 255
1.054636 0.033166 0.090000 255 209 0 255
1.060027 0.039783 0.090000 255 209 0 255
1.137673 0.040217 0.090000 255 209 0 255
1.238350 0.060000 0.090000 255 209 0 255
1.153027 0.039783 0.090000 255 209 0 255
1.232326 0.035236 0.090000 255 209 0 255
1.240636 0.033166 0.090000 255 209 0 255
1.246027 0.039783 0.090000 255 209 0 255
1.323673 0.040217 0.090000 255 209 0 255
1.377850 0.060000 0.090000 255 209 0 255
1.339027 0.039783 0.090000 255 209 0 255
1.416673 0.040217 0.090000 255 209 0 255
1.430375 0.044764 0.090000 255 209 0 255
1.516650 0.060000 0.090000 255 209 0 255
0.116540 0.044605 0.975000 255 209 0 255
0.117389 0.033729 0.975000 255 209 0 255
0.128160 0.035395 0.975000 255 209 0 255
0.127311 0.046271 0.975000 255 209 0 255
0.215350 0.060000 0.975000 255 209 0 255
0.209540 0.044605 0.975000 255 209 0 255
0.210389 0.033729 0.975000 255 209 0 255
0.221160 0.035395 0.975000 255 209 0 255
0.220311 0.046271 0.975000 255 209 0 255
0.302540 0.044605 0.975000 255 209 0 255
0.303389 0.033729 0.975000 255 209 0 255
0.314160 0.035395 0.975000 255 209 0 255
0.313311 0.046271 0.975000 255 209 0 255
0.401350 0.060000 0.975000 255 209 0 255
0.395540 0.044605 0.975000 255 209 0 255
0.396389 0.033729 0.975000 255 209 0 255
0.407160 0.035395 0.975000 255 209 0 255
0.406311 0.046271 0.975000 255 209 0 255
0.488540 0.044605 0.975000 255 209 0 255
0.489389 0.033729 0.975000 255 209 0 255
0.500160 0.035395 0.975000 255 209 0 255
0.499311 0.046271 0.975000 255 209 0 255
0.587350 0.060000 0.975000 255 209 0 255
0.579939 0.039794 0.975000 255 209 0 255
0.585010 0.032965 0.975000 255 209 0 255
0.595592 0.038792 0.975000 255 209 0 255
0.674540 0.044604 0.975000 255 209 0 255
0.674609 0.034898 0.975000 255 209 0 255
0.685453 0.034259 0.975000 255 209 0 255
0.685311 0.046271 0.975000 255 209 0 255
0.773350 0.060000 0.975000 255 209 0 255
0.769155 0.046807 0.975000 255 209 0 255
0.767609 0.034898 0.975000 255 209 0 255
0.778453 0.034259 0.975000 255 209 0 255
0.779665 0.043884 0.975000 255 209 0 255
0.858859 0.039131 0.975000 255 209 0 255
0.867255 0.032218 0.975000 255 209 0 255
0.951108 0.041209 0.975000 255 209 0 255
0.960898 0.032476 0.975000 255 209 0 255
0.966761 0.040206 0.975000 255 209 0 255
1.046326 0.044764 0.975000 255 209 0 255
1.049729 0.032094 0.975000 255 209 0 255
1.005850 0.060000 0.975000 255 209 0 255
1.060027 0.040217 0.975000 255 209 0 255
1.145350 0.060000 0.975000 255 209 0 255
1.137673 0.039783 0.975000 255 209 0 255
1.145570 0.032322 0.975000 255 209 0 255
1.153027 0.040217 0.975000 255 209 0 255
1.232326 0.044764 0.975000 255 209 0 255
1.235729 0.032094 0.975000 255 209 0 255
1.246027 0.040217 0.975000 255 209 0 255
1.331350 0.060000 0.975000 255 209 0 255
1.323673 0.039783 0.975000 255 209 0 255
1.331570 0.032322 0.975000 255 209 0 255
1.339027 0.040217 0.975000 255 209 0 255
1.416673 0.039783 0.975000 255 209 0 255
1.422064 0.033166 0.975000 255 209 0 255
1.430375 0.035236 0.975000 255 209 0 255
1.516650 0.060000 0.975000 255 209 0 255
0.951108 0.038792 0.090000 255 209 0 255
0.873841 0.040869 0.975000 255 209 0 255
0.961690 0.047035 0.975000 255 209 0 255
1.049729 0.047906 0.090000 255 209 0 255
1.235729 0.047906 0.090000 255 209 0 255
1.426972 0.047906 0.975000 255 209 0 255
0.585802 0.047524 0.975000 255 209 0 255
0.865445 0.047782 0.975000 255 209 0 255
0.960898 0.047524 0.090000 255 209 0 255
1.145130 0.047678 0.975000 255 209 0 255
1.145570 0.047678 0.090000 255 209 0 255
1.331130 0.047678 0.975000 255 209 0 255
1.331570 0.047678 0.090000 255 209 0 255
1.422064 0.046834 0.090000 255 209 0 255
1.054636 0.046834 0.975000 255 209 0 255
1.240637 0.046834 0.975000 255 209 0 255
1.499964 0.076454 0.000000 255 209 0 255
1.500217 0.075957 0.990000 255 209 0 255
-0.000034 0.076453 -0.000000 255 209 0 255
0.000219 0.075956 0.990000 255 209 0 255
0.045781 0.075956 0.000000 255 209 0 255
1.545783 0.075957 0.000000 255 209 0 255
0.046034 0.076453 0.990000 255 209 0 255
1.546036 0.076454 0.990000 255 209 0 255
3 0 1 2
3 1 3 2
3 4 5 6
3 5 7 6
3 8 9 2
3 3 8 2
3 1 0 10
3 10 0 11
3 12 6 7
3 13 12 7
3 4 14 5
3 14 15 5
3 1 10 3
3 10 8 3
3 5 15 7
3 15 13 7
3 9 0 2
3 12 4 6
3 9 11 0
3 12 14 4
3 10 16 8
3 16 17 8
3 18 9 8
3 17 18 8
3 18 19 9
3 19 20 9
3 20 21 9
3 21 22 9
3 22 11 9
3 23 24 13
3 24 25 13
3 15 23 13
3 25 26 13
3 26 12 13
3 26 14 12
3 11 16 10
3 22 27 11
3 27 28 11
3 28 16 11
3 29 30 15
3 30 31 15
3 31 32 15
3 32 23 15
3 14 29 15
3 26 33 14
3 33 29 14
3 24 23 20
3 23 21 20
3 19 34 20
3 34 24 20
3 34 25 24
3 35 36 21
3 37 35 21
3 38 37 21
3 39 38 21
3 40 39 21
3 41 40 21
3 42 41 21
3 23 43 21
3 43 42 21
3 44 43 23
3 45 44 23
3 46 45 23
3 47 48 22
3 48 49 22
3 49 50 22
3 50 51 22
3 31 27 22
3 51 52 22
3 52 53 22
3 53 54 22
3 54 55 22
3 55 56 22
3 56 57 22
3 57 58 22
3 58 59 22
3 59 32 22
3 32 31 22
3 60 28 27
3 31 60 27
3 30 60 31
3 19 61 21
3 61 22 21
3 62 19 21
3 63 62 21
3 36 63 21
3 64 65 36
3 66 67 36
3 67 64 36
3 35 68 36
3 68 66 36
3 64 69 35
3 69 68 35
3 70 71 35
3 71 64 35
3 37 72 35
3 72 70 35
3 73 74 37
3 74 72 37
3 75 76 37
3 76 73 37
3 38 77 37
3 77 75 37
3 73 78 38
3 78 77 38
3 79 80 38
3 80 73 38
3 39 81 38
3 81 79 38
3 82 83 39
3 83 81 39
3 84 85 39
3 85 82 39
3 40 86 39
3 86 84 39
3 82 87 40
3 87 86 40
3 88 89 40
3 89 82 40
3 41 90 40
3 90 88 40
3 91 92 41
3 92 90 41
3 93 94 41
3 94 91 41
3 42 93 41
3 91 95 42
3 95 96 42
3 96 93 42
3 97 98 42
3 98 91 42
3 43 99 42
3 99 97 42
3 100 99 43
3 101 102 43
3 103 101 43
3 102 100 43
3 104 103 43
3 44 105 43
3 105 104 43
3 103 106 44
3 106 105 44
3 107 103 44
3 108 109 44
3 110 108 44
3 45 111 44
3 111 110 44
3 108 112 45
3 112 111 45
3 113 108 45
3 114 115 46
3 115 45 46
3 116 114 46
3 117 46 23
3 118 117 23
3 32 118 23
3 61 119 22
3 119 120 22
3 120 47 22
3 121 122 47
3 120 121 47
3 122 123 47
3 123 124 47
3 124 125 47
3 125 48 47
3 126 127 48
3 127 123 48
3 125 126 48
3 123 128 48
3 128 129 48
3 129 49 48
3 130 131 49
3 131 132 49
3 129 130 49
3 132 133 49
3 133 134 49
3 134 50 49
3 135 136 50
3 136 132 50
3 134 135 50
3 132 137 50
3 137 138 50
3 138 51 50
3 139 140 51
3 140 141 51
3 138 139 51
3 142 143 51
3 141 142 51
3 143 52 51
3 144 141 52
3 143 144 52
3 141 145 52
3 145 146 52
3 146 147 52
3 147 53 52
3 147 148 53
3 148 149 53
3 149 150 53
3 150 151 53
3 151 152 53
3 152 54 53
3 153 149 54
3 152 153 54
3 154 155 54
3 156 157 54
3 149 154 54
3 155 156 54
3 157 55 54
3 157 158 55
3 159 160 55
3 158 161 55
3 161 159 55
3 160 56 55
3 160 162 56
3 162 163 56
3 163 164 56
3 164 165 56
3 165 57 56
3 165 166 57
3 167 168 57
3 166 163 57
3 163 167 57
3 168 58 57
3 168 169 58
3 169 170 58
3 170 171 58
3 171 172 58
3 172 59 58
3 172 173 59
3 173 170 59
3 170 174 59
3 174 175 59
3 175 32 59
3 175 176 32
3 176 177 32
3 177 118 32
3 147 146 90
3 96 152 93
3 152 151 93
3 160 104 105
3 168 110 111
3 46 176 175
3 120 63 36
3 125 66 68
3 129 70 72
3 134 75 77
3 138 79 81
3 143 84 86
3 146 88 90
3 157 178 102
3 178 100 102
3 36 121 120
3 68 126 125
3 72 130 129
3 77 135 134
3 81 139 138
3 86 144 143
3 155 97 99
3 157 156 178
3 155 154 97
3 106 160 105
3 165 164 44
3 164 107 44
3 109 165 44
3 112 168 111
3 172 171 45
3 171 113 45
3 115 172 45
3 175 174 46
3 174 116 46
3 106 162 160
3 109 166 165
3 112 169 168
3 115 173 172
3 143 142 84
3 101 157 102
3 99 179 155
3 179 156 155
3 101 158 157
3 100 179 99
3 180 156 179
3 120 62 63
3 125 67 66
3 129 71 70
3 134 76 75
3 138 80 79
3 142 85 84
3 146 89 88
3 151 94 93
3 154 98 97
3 160 159 104
3 168 167 110
3 117 176 46
3 36 122 121
3 68 127 126
3 72 131 130
3 77 136 135
3 81 140 139
3 90 148 147
3 96 153 152
3 120 119 62
3 65 122 36
3 125 124 67
3 69 127 68
3 129 128 71
3 74 131 72
3 134 133 76
3 78 136 77
3 138 137 80
3 83 140 81
3 87 144 86
3 146 145 89
3 92 148 90
3 151 150 94
3 95 153 96
3 159 181 104
3 181 103 104
3 167 182 110
3 182 108 110
3 117 183 176
3 183 177 176
3 161 180 179
3 142 184 85
3 154 185 98
3 178 186 100
3 186 103 100
3 186 158 101
3 103 186 101
3 141 184 142
3 149 185 154
3 186 180 158
3 180 161 158
3 181 162 106
3 103 181 106
3 164 187 107
3 187 188 107
3 188 103 107
3 188 166 109
3 108 188 109
3 182 169 112
3 108 182 112
3 171 189 113
3 189 190 113
3 190 108 113
3 190 173 115
3 114 190 115
3 174 183 116
3 183 191 116
3 191 114 116
3 100 185 179
3 185 161 179
3 181 192 162
3 192 163 162
3 163 187 164
3 188 187 166
3 187 163 166
3 182 193 169
3 193 170 169
3 170 189 171
3 190 189 173
3 189 170 173
3 170 183 174
3 156 186 178
3 87 184 144
3 184 141 144
3 150 95 94
3 95 91 94
3 95 150 153
3 150 149 153
3 119 122 62
3 64 62 65
3 62 122 65
3 124 127 67
3 64 67 69
3 67 127 69
3 128 131 71
3 71 131 74
3 73 71 74
3 133 136 76
3 76 136 78
3 73 76 78
3 137 140 80
3 80 140 83
3 82 80 83
3 145 148 89
3 156 180 186
3 61 122 119
3 123 127 124
3 123 131 128
3 132 136 133
3 132 140 137
3 141 148 145
3 184 87 85
3 87 82 85
3 148 92 89
3 92 82 89
3 185 100 98
3 100 91 98
3 103 91 100
3 159 192 181
3 167 193 182
3 191 183 117
3 118 191 117
3 149 161 185
3 161 192 159
3 163 193 167
3 64 19 62
3 73 64 71
3 82 73 80
3 91 82 92
3 108 103 188
3 114 108 190
3 118 114 191
3 61 123 122
3 123 132 131
3 132 141 140
3 141 149 148
3 161 163 192
3 163 170 193
3 170 177 183
3 64 73 19
3 73 82 19
3 82 34 19
3 118 25 34
3 82 91 34
3 103 108 34
3 91 103 34
3 108 114 34
3 114 118 34
3 18 28 19
3 28 61 19
3 177 25 118
3 28 60 61
3 60 123 61
3 60 132 123
3 60 141 132
3 60 149 141
3 60 161 149
3 30 163 161
3 60 30 161
3 30 170 163
3 30 177 170
3 30 29 177
3 29 25 177
3 25 194 26
3 195 29 33
3 17 196 18
3 197 16 28
3 197 196 17
3 16 197 17
3 195 194 25
3 29 195 25
3 198 28 18
3 196 198 18
3 199 33 26
3 194 199 26
3 198 200 28
3 200 197 28
3 199 201 33
3 201 195 33
3 197 200 196
3 200 198 196
3 195 201 194
3 201 199 194
